<?xml version="1.0" standalone="no"?>
<!DOCTYPE svg PUBLIC "-//W3C//DTD SVG 20010904//EN"
 "http://www.w3.org/TR/2001/REC-SVG-20010904/DTD/svg10.dtd">
<svg version="1.0" xmlns="http://www.w3.org/2000/svg"
 width="100.000000pt" height="61.000000pt" viewBox="0 0 100.000000 61.000000"
 preserveAspectRatio="xMidYMid meet">

<g transform="translate(0.000000,61.000000) scale(0.100000,-0.100000)"
fill="#000000" stroke="none">
<path d="M89 600 c-1 -8 -2 -24 -3 -34 -1 -11 -8 -21 -16 -24 -12 -4 -13 -3
-3 10 10 12 10 19 -1 34 -14 18 -15 18 -21 2 -4 -10 -12 -15 -17 -12 -6 4 -5
-3 1 -15 10 -17 9 -20 -4 -15 -17 7 -22 -21 -5 -31 6 -3 10 -26 10 -51 0 -24
2 -44 5 -44 3 0 25 9 47 20 23 11 43 20 45 20 2 0 3 -9 3 -20 0 -11 -4 -20 -9
-20 -4 0 -21 -18 -36 -40 -19 -28 -35 -40 -51 -40 -30 0 -31 -17 -1 -23 l22
-4 -22 -2 c-25 -1 -32 -21 -8 -21 8 0 15 -4 15 -10 0 -5 -7 -7 -15 -4 -12 5
-15 -2 -15 -29 0 -25 5 -37 18 -40 16 -4 16 -5 0 -6 -14 -1 -18 -10 -18 -36 0
-32 3 -35 28 -35 37 0 72 -46 72 -95 0 -19 5 -35 10 -35 6 0 10 14 10 31 0 17
4 28 10 24 6 -3 10 -17 10 -30 l0 -24 129 1 130 0 4 27 4 26 2 -27 c2 -45 21
-32 21 13 l0 42 53 -7 c28 -3 60 -6 70 -6 13 0 17 -8 17 -35 0 -30 3 -35 24
-35 15 0 26 7 29 17 4 17 5 17 6 1 1 -16 15 -18 136 -18 l136 0 -2 38 c-2 28
3 45 19 62 12 13 24 32 28 42 3 10 10 18 15 18 5 0 9 36 9 80 0 44 -4 80 -9
80 -5 0 -14 13 -21 29 -6 16 -20 37 -31 47 -10 9 -19 27 -19 40 0 13 -7 27
-17 32 -11 7 -14 16 -9 28 7 16 9 15 21 -13 17 -39 40 -45 33 -8 -4 19 -1 25
13 25 15 0 19 -8 19 -35 0 -19 5 -35 10 -35 14 0 13 67 -1 76 -6 3 -9 15 -6
25 3 12 0 19 -9 19 -9 0 -14 12 -15 33 -1 19 -3 24 -6 12 -14 -69 -12 -66 -33
-53 -12 8 -21 25 -21 43 -2 27 -2 27 -6 5 -5 -25 -42 -80 -44 -64 -1 5 0 21 1
35 0 15 -5 29 -12 32 -11 4 -14 -7 -13 -49 1 -30 -2 -54 -7 -54 -8 0 -12 15
-8 39 1 8 -4 17 -11 22 -10 6 -10 10 0 23 15 17 7 36 -15 36 -8 0 -12 -4 -9
-10 3 -5 -3 -10 -14 -10 -12 0 -21 5 -21 10 0 14 -27 12 -34 -2 -5 -10 -7 -10
-12 0 -7 14 -74 17 -74 3 0 -5 10 -12 23 -14 19 -4 18 -4 -5 -6 -19 -1 -28 4
-28 14 0 13 -21 15 -131 15 l-131 0 4 -40 3 -39 -22 20 c-13 13 -19 28 -15 38
5 14 4 14 -11 2 -11 -9 -17 -10 -17 -2 0 6 -7 11 -16 11 -11 0 -14 -5 -10 -17
6 -15 4 -15 -14 2 -13 12 -20 14 -20 5 0 -10 -4 -9 -17 1 -14 12 -16 12 -11
-1 4 -11 0 -16 -12 -17 -13 -1 -16 4 -12 19 4 16 1 19 -14 16 -15 -3 -18 -11
-16 -36 2 -18 -1 -32 -7 -32 -6 0 -11 10 -11 23 0 28 -19 60 -21 37z m151 -45
c11 -13 6 -15 -39 -15 -28 0 -51 4 -51 8 0 4 16 6 35 4 21 -3 35 0 35 7 0 15
5 14 20 -4z m412 -25 c2 -16 1 -27 -4 -24 -4 3 -8 13 -8 23 0 9 -6 23 -12 30
-11 10 -10 11 3 6 10 -4 19 -19 21 -35z m61 9 c-4 -15 -8 -17 -14 -8 -8 14 -3
29 11 29 4 0 6 -9 3 -21z m47 2 c0 -6 -4 -12 -8 -15 -5 -3 -9 1 -9 9 0 8 4 15
9 15 4 0 8 -4 8 -9z m120 -9 c0 -5 -7 -9 -15 -9 -8 0 -12 4 -9 9 3 4 9 8 15 8
5 0 9 -4 9 -8z m-142 -37 c3 -14 -31 -12 -35 1 -2 6 4 10 14 9 10 0 19 -5 21
-10z m120 -8 c2 -12 -1 -15 -12 -11 -19 7 -22 38 -3 32 6 -3 13 -12 15 -21z
m-78 3 c0 -5 -4 -10 -10 -10 -5 0 -10 5 -10 10 0 6 5 10 10 10 6 0 10 -4 10
-10z m-406 -75 c3 -8 10 -15 16 -15 6 0 8 6 5 13 -4 6 3 1 14 -12 12 -12 18
-28 14 -34 -5 -8 -8 -8 -10 0 -3 7 -14 9 -32 3 -24 -7 -28 -5 -24 10 5 17 -29
35 -42 22 -10 -10 -35 -11 -40 -1 -3 4 4 11 17 13 41 9 63 14 69 15 4 0 9 -6
13 -14z m106 -7 c0 -4 -6 -8 -14 -8 -8 0 -17 4 -20 8 -2 4 4 8 15 8 10 0 19
-4 19 -8z m60 -23 c0 -19 -4 -35 -8 -35 -4 0 -6 16 -4 35 2 19 6 35 8 35 2 0
4 -16 4 -35z m-317 12 c3 -8 -1 -14 -9 -14 -15 0 -18 9 -7 20 9 9 10 9 16 -6z
m41 -43 c6 -57 2 -79 -15 -69 -10 7 -8 125 2 125 3 0 9 -25 13 -56z m569 4 l6
-38 -52 2 c-50 1 -51 2 -9 5 41 4 42 5 42 40 0 44 5 41 13 -9z m-492 -8 c5 0
9 -7 9 -15 0 -8 -5 -14 -12 -12 -6 1 -15 -9 -19 -23 l-7 -25 -1 24 c-1 20 -3
21 -16 11 -13 -11 -15 -8 -15 14 0 24 10 31 34 27 5 -1 6 5 3 13 -3 8 -3 17 1
21 4 4 8 -3 10 -14 2 -12 8 -21 13 -21z m342 33 c-7 -2 -19 -2 -25 0 -7 3 -2
5 12 5 14 0 19 -2 13 -5z m80 -10 c-7 -2 -19 -2 -25 0 -7 3 -2 5 12 5 14 0 19
-2 13 -5z m107 -13 c8 -16 8 -20 -3 -20 -8 0 -17 9 -20 20 -3 11 -1 20 4 20 4
0 13 -9 19 -20z m-360 -2 c0 -11 -28 -10 -35 1 -3 6 4 9 15 8 11 -1 20 -5 20
-9z m-295 -49 c0 -60 -23 -49 -31 15 -3 29 -1 33 14 29 14 -3 18 -14 17 -44z
m568 44 c-7 -2 -21 -2 -30 0 -10 3 -4 5 12 5 17 0 24 -2 18 -5z m-615 -15 c19
-19 14 -26 -23 -30 -21 -2 -35 0 -35 7 0 14 21 35 35 35 6 0 16 -5 23 -12z
m418 -9 c23 -14 47 -20 74 -18 21 2 42 0 46 -4 4 -4 -16 -7 -44 -7 l-51 0 10
-30 c10 -28 15 -30 60 -30 l49 0 0 -46 0 -46 -37 23 c-21 13 -39 27 -41 31
-10 24 -21 1 -25 -49 l-3 -58 -2 63 c-1 34 -6 62 -11 62 -9 0 -61 -38 -74 -55
-4 -5 -6 13 -4 40 2 39 -2 58 -20 87 -13 21 -23 40 -23 42 0 3 12 7 28 9 15 2
29 5 31 6 2 0 19 -8 37 -20z m-160 -14 c-9 -24 4 -45 28 -44 16 1 17 2 4 6
-18 5 -26 43 -9 43 18 0 61 -89 61 -124 0 -20 -2 -36 -5 -36 -3 0 -19 14 -37
30 -17 17 -34 30 -38 30 -9 0 -20 91 -13 102 8 14 15 8 9 -7z m474 -12 c0 -5
-34 -8 -75 -8 -41 0 -75 3 -75 8 0 4 34 7 75 7 41 0 75 -3 75 -7z m-533 -100
c-2 -16 -4 -3 -4 27 0 30 2 43 4 28 2 -16 2 -40 0 -55z m-204 50 c-13 -2 -33
-2 -45 0 -13 2 -3 4 22 4 25 0 35 -2 23 -4z m174 -60 c-2 -16 -4 -5 -4 22 0
28 2 40 4 28 2 -13 2 -35 0 -50z m493 43 c0 -3 -4 -16 -10 -30 -6 -17 -6 -26
0 -26 6 0 10 5 10 10 0 6 16 10 35 10 24 0 35 -5 35 -15 0 -12 -13 -15 -59
-15 -33 0 -63 -4 -66 -10 -14 -23 -25 -7 -25 35 l0 45 40 0 c22 0 40 -2 40 -4z
m-554 -48 c1 -24 -4 -38 -11 -38 -17 0 -63 37 -76 61 -10 19 -7 20 38 17 l48
-3 1 -37z m144 -27 c0 -28 -4 -53 -10 -56 -6 -4 -10 15 -10 49 0 31 5 56 10
56 6 0 10 -22 10 -49z m-237 0 c-13 -11 -23 -27 -23 -38 -1 -15 -5 -13 -25 10
-14 15 -25 32 -25 38 0 5 21 9 48 9 l47 -1 -22 -18z m524 -78 c-2 -16 -4 -5
-4 22 0 28 2 40 4 28 2 -13 2 -35 0 -50z m166 41 c-12 -19 -18 -22 -21 -13 -3
8 -9 20 -15 27 -7 9 -2 12 22 12 l31 0 -17 -26z"/>
<path d="M538 303 c12 -2 32 -2 45 0 12 2 2 4 -23 4 -25 0 -35 -2 -22 -4z"/>
<path d="M965 140 c-3 -5 -1 -10 4 -10 6 0 11 5 11 10 0 6 -2 10 -4 10 -3 0
-8 -4 -11 -10z"/>
<path d="M510 30 c0 -25 4 -30 24 -30 19 0 25 6 28 30 4 27 2 30 -24 30 -24 0
-28 -4 -28 -30z"/>
</g>
</svg>
